HIERARCHY
ROOT Hips
{
	OFFSET 0.00000 0.00000 0.00000
	CHANNELS 6 Xposition Yposition Zposition Zrotation Yrotation Xrotation 
	JOINT LHipJoint
	{
		OFFSET 0 0 0
		CHANNELS 3 Zrotation Yrotation Xrotation
		JOINT LeftHip
		{
			OFFSET 1.52977 -1.71332 0.88991
			CHANNELS 3 Zrotation Yrotation Xrotation
			JOINT LeftKnee
			{
				OFFSET 2.23949 -6.15296 0.00000
				CHANNELS 3 Zrotation Yrotation Xrotation
				JOINT LeftAnkle
				{
					OFFSET 2.68396 -7.37412 0.00000
					CHANNELS 3 Zrotation Yrotation Xrotation
					JOINT LeftToe
					{
						OFFSET 0.20538 -0.56428 2.52710
						CHANNELS 3 Zrotation Yrotation Xrotation
						End Site
						{
							OFFSET 0.00000 -0.00000 1.29919
						}
					}
				}
			}
		}
	}
	JOINT RHipJoint
	{
		OFFSET 0 0 0
		CHANNELS 3 Zrotation Yrotation Xrotation
		JOINT RightHip
		{
			OFFSET -1.45689 -1.71333 0.88991
			CHANNELS 3 Zrotation Yrotation Xrotation
			JOINT RightKnee
			{
				OFFSET -2.36700 -6.50329 0.00000
				CHANNELS 3 Zrotation Yrotation Xrotation
				JOINT RightAnkle
				{
					OFFSET -2.69814 -7.41308 0.00000
					CHANNELS 3 Zrotation Yrotation Xrotation
					JOINT RightToe
					{
						OFFSET -0.18734 -0.51471 2.37479
						CHANNELS 3 Zrotation Yrotation Xrotation
						End Site
						{
							OFFSET -0.00000 -0.00000 1.22113
						}
					}
				}
			}
		}
	}
	JOINT lowerback
	{
		OFFSET 0 0 0
		CHANNELS 3 Zrotation Yrotation Xrotation
		JOINT Chest
		{
			OFFSET 0.04294 2.14638 -0.31163
			CHANNELS 3 Zrotation Yrotation Xrotation
			JOINT Chest2
			{
				OFFSET -0.00400 2.17216 0.01486
				CHANNELS 3 Zrotation Yrotation Xrotation
				JOINT lowerneck
				{
					OFFSET 0 0 0
					CHANNELS 3 Zrotation Yrotation Xrotation
					JOINT Neck
					{
						OFFSET 0.03869 1.76598 0.14916
						CHANNELS 3 Zrotation Yrotation Xrotation
						JOINT Head
						{
							OFFSET -0.00760 1.75513 -0.18948
							CHANNELS 3 Zrotation Yrotation Xrotation
							End Site
							{
								OFFSET -0.00601 1.82444 -0.08310
							}
						}
					}
				}
				JOINT LeftCollar
				{
					OFFSET 0 0 0
					CHANNELS 3 Zrotation Yrotation Xrotation
					JOINT LeftShoulder
					{
						OFFSET 3.73696 0.92058 0.01733
CHANNELS 3 Zrotation Xrotation Yrotation
						JOINT LeftElbow
						{
OFFSET 0 -5.227710 0.000000
CHANNELS 3 Zrotation Xrotation Yrotation
							JOINT LeftWrist
							{
OFFSET 0 -3.452510 0.000000
CHANNELS 3 Zrotation Xrotation Yrotation
								JOINT lhand
								{
									OFFSET 0 0 0
CHANNELS 3 Zrotation Xrotation Yrotation
									JOINT LFingers
									{
OFFSET 0 -0.552120 0.000000
CHANNELS 3 Zrotation Xrotation Yrotation
										End Site
										{
OFFSET 0 -0.445130 0.000000
										}
									}
								}
								JOINT LThumb
								{
OFFSET 0 0.000000 0.000000
CHANNELS 3 Zrotation Xrotation Yrotation
									End Site
									{
OFFSET 0 -0.451930 0.451930
									}
								}
							}
						}
					}
				}
				JOINT RightCollar
				{
					OFFSET 0 0 0
					CHANNELS 3 Zrotation Yrotation Xrotation
					JOINT RightShoulder
					{
						OFFSET -3.63819 0.83094 -0.13694
CHANNELS 3 Zrotation Xrotation Yrotation
						JOINT RightElbow
						{
OFFSET 0 -5.239800 -0.000000
CHANNELS 3 Zrotation Xrotation Yrotation
							JOINT RightWrist
							{
OFFSET 0 -3.480420 -0.000000
CHANNELS 3 Zrotation Xrotation Yrotation
								JOINT rhand
								{
									OFFSET 0 0 0
CHANNELS 3 Zrotation Xrotation Yrotation
									JOINT RFingers
									{
OFFSET 0 -0.618710 0.000000
CHANNELS 3 Zrotation Xrotation Yrotation
										End Site
										{
OFFSET 0 -0.498820 0.000000
										}
									}
								}
								JOINT RThumb
								{
OFFSET 0 0.000000 0.000000
CHANNELS 3 Zrotation Xrotation Yrotation
									End Site
									{
OFFSET 0 -0.506440 0.506440
									}
								}
							}
						}
					}
				}
			}
		}
	}
}
MOTION
Frames: 8
Frame Time: 0.008333333333333333
50.534400 17.573100 -4.192500 -113.083000 85.904900 -113.931000 0.000000 0.000000 0.000000 -15.511900 7.639800 1.225900 0.802500 5.717500 15.966900 0.385900 2.641400 11.120900 3.497000 -11.459200 -33.844700 0.000000 0.000000 0.000000 22.326400 -0.144800 -4.288500 -2.450400 -9.747100 28.161600 0.585300 -13.484500 -3.454400 -0.001100 0.209800 -0.576500 4.398900 -1.096400 -0.548400 0.362000 -1.506900 0.858900 -2.113500 -0.713600 1.086200 0.776500 -0.307200 -8.273700 1.546400 -0.649900 12.610300 0.312200 -0.143300 5.155900 -0.000000 -0.000000 0.000000 3.483800 4.374700 -23.761000 13.964600 -22.684000 2.814400 16.075300 -13.202800 -11.349400 0.000000 0.000000 0.000000 -7.125000 0.000000 0.000000 -9.860800 41.573700 -0.842500 -0.000000 -0.000000 0.000000 -1.198200 4.155800 19.406100 -14.158800 -22.961300 -2.889800 -18.230200 7.087800 9.010700 0.000000 0.000000 0.000000 7.125000 0.000000 -0.000000 7.560500 39.350700 1.059600
50.536272 17.577529 -4.194663 -112.805309 85.884476 -113.623621 0.000000 0.000000 0.000000 -15.492507 7.624848 1.187050 0.802163 5.716269 15.963523 0.392604 2.698642 11.214046 3.436211 -11.369852 -33.537483 0.000000 0.000000 0.000000 22.350151 -0.134904 -4.322838 -2.446102 -9.739190 28.136210 0.582000 -13.428022 -3.635340 -0.005916 0.492882 -1.354486 4.416406 -1.108365 -0.587019 0.369691 -1.525469 0.867053 -2.116681 -0.721881 1.114771 0.853331 -0.269286 -8.198834 1.432903 -0.592047 12.563737 0.268384 -0.119911 5.127928 0.000000 0.000000 0.000000 3.462032 4.351328 -23.711062 13.935595 -22.642593 2.803267 16.035727 -13.142014 -11.416455 0.000000 0.000000 0.000000 -7.125000 0.000000 0.000000 -9.909588 41.638366 -0.830805 0.000000 0.000000 0.000000 -1.200167 4.159542 19.496214 -14.210601 -23.034988 -2.910004 -18.423174 7.067838 8.994234 0.000000 0.000000 0.000000 7.125000 0.000000 0.000000 7.391855 39.348615 1.036062
50.537366 17.581675 -4.196443 -112.676654 85.864321 -113.494768 0.000000 0.000000 0.000000 -15.472498 7.611202 1.155403 0.804986 5.726191 15.992025 0.400390 2.760226 11.321039 3.412885 -11.335217 -33.419095 0.000000 0.000000 0.000000 22.370317 -0.154193 -4.321774 -2.438944 -9.726143 28.094230 0.587308 -13.492219 -3.610553 -0.003568 0.383844 -1.054624 4.434619 -1.111596 -0.583096 0.370381 -1.529899 0.879097 -2.126228 -0.723575 1.124201 0.821137 -0.281800 -8.193262 1.462896 -0.608345 12.583377 0.281864 -0.127017 5.133385 0.000000 0.000000 0.000000 3.476892 4.356378 -23.825745 13.948832 -22.661504 2.808372 16.010756 -13.208659 -11.426047 0.000000 0.000000 0.000000 -7.125000 0.000000 0.000000 -9.933541 41.645843 -0.831032 0.000000 0.000000 0.000000 -1.175980 4.176401 19.562615 -14.280235 -23.133897 -2.937308 -18.467093 7.055679 9.197275 0.000000 0.000000 0.000000 7.125000 0.000000 0.000000 7.385916 39.563346 0.995914
50.538274 17.586204 -4.198223 -112.629915 85.843217 -113.442170 0.000000 0.000000 0.000000 -15.453864 7.587924 1.116820 0.808447 5.738172 16.026576 0.408825 2.825371 11.436840 3.386507 -11.295943 -33.284528 0.000000 0.000000 0.000000 22.395504 -0.150766 -4.315166 -2.431624 -9.712505 28.050550 0.606408 -13.729351 -3.415695 -0.001077 0.206601 -0.567608 4.451853 -1.119234 -0.583111 0.371443 -1.540598 0.892164 -2.135083 -0.728179 1.136466 0.798351 -0.285862 -8.177668 1.485797 -0.613393 12.589374 0.292400 -0.128881 5.132740 0.000000 0.000000 0.000000 3.482336 4.349755 -23.909592 13.962142 -22.680519 2.813511 15.978837 -13.264382 -11.411309 0.000000 0.000000 0.000000 -7.125000 0.000000 0.000000 -9.958355 41.627788 -0.837634 0.000000 0.000000 0.000000 -1.157171 4.184808 19.625348 -14.338705 -23.216858 -2.960321 -18.526084 7.053317 9.321017 0.000000 0.000000 0.000000 7.125000 0.000000 0.000000 7.354815 39.696900 0.967326
50.538777 17.590839 -4.199632 -112.673481 85.830211 -113.474389 0.000000 0.000000 0.000000 -15.442831 7.559437 1.066976 0.812273 5.751405 16.064895 0.418432 2.880817 11.567892 3.367242 -11.267008 -33.185713 0.000000 0.000000 0.000000 22.418097 -0.111111 -4.303617 -2.423943 -9.698229 28.004945 0.623978 -13.943296 -3.283182 -0.000234 0.098108 -0.269667 4.458075 -1.128546 -0.584973 0.367929 -1.553464 0.902169 -2.142380 -0.734205 1.146589 0.787352 -0.288441 -8.167408 1.503017 -0.617350 12.602562 0.299316 -0.129932 5.135121 0.000000 0.000000 0.000000 3.487305 4.343416 -23.974426 13.985890 -22.714543 2.822621 15.938200 -13.313314 -11.393785 0.000000 0.000000 0.000000 -7.125000 0.000000 0.000000 -9.990243 41.606101 -0.845780 0.000000 0.000000 0.000000 -1.131701 4.195669 19.680799 -14.392535 -23.293063 -2.981585 -18.548357 7.073622 9.477818 0.000000 0.000000 0.000000 7.125000 0.000000 0.000000 7.360572 39.862041 0.938062
50.539157 17.595102 -4.200543 -112.706304 85.819066 -113.486007 0.000000 0.000000 0.000000 -15.425347 7.540237 0.998621 0.816774 5.766936 16.109737 0.428376 2.883218 11.708870 3.363086 -11.260816 -33.164590 0.000000 0.000000 0.000000 22.447973 -0.030515 -4.285676 -2.415882 -9.683293 27.957105 0.635434 -14.069413 -3.299746 -0.000114 0.068068 -0.187124 4.459530 -1.138361 -0.598723 0.362626 -1.567463 0.910261 -2.149232 -0.740760 1.161508 0.795106 -0.288429 -8.172976 1.503998 -0.618516 12.632617 0.298341 -0.129586 5.145378 0.000000 0.000000 0.000000 3.493475 4.335567 -24.013946 14.017187 -22.759194 2.834706 15.910362 -13.345898 -11.385985 0.000000 0.000000 0.000000 -7.125000 0.000000 0.000000 -10.012937 41.595599 -0.850344 0.000000 0.000000 0.000000 -1.101099 4.206134 19.751007 -14.438521 -23.358144 -2.999780 -18.532605 7.081127 9.710092 0.000000 0.000000 0.000000 7.125000 0.000000 0.000000 7.412128 40.102654 0.900509
50.540098 17.598711 -4.201332 -112.863077 85.813507 -113.617950 0.000000 0.000000 0.000000 -15.406367 7.546253 0.917265 0.821757 5.784102 16.159324 0.438349 2.803410 11.856392 3.372412 -11.274736 -33.212277 0.000000 0.000000 0.000000 22.469457 0.052838 -4.259205 -2.407515 -9.667745 27.907308 0.644785 -14.164850 -3.363089 0.000000 0.016064 -0.044033 4.455024 -1.148100 -0.623133 0.351892 -1.581974 0.919344 -2.158676 -0.747372 1.183384 0.809732 -0.290755 -8.185789 1.497438 -0.622949 12.668569 0.293655 -0.130859 5.158725 0.000000 0.000000 0.000000 3.506038 4.323281 -24.047969 14.049841 -22.805866 2.847427 15.910570 -13.374399 -11.389772 0.000000 0.000000 0.000000 -7.125000 0.000000 0.000000 -10.013728 41.599472 -0.849419 0.000000 0.000000 0.000000 -1.065738 4.214240 19.815432 -14.474156 -23.408415 -3.013876 -18.514443 7.082062 9.945598 0.000000 0.000000 0.000000 7.125000 0.000000 0.000000 7.467024 40.346166 0.862218
50.541461 17.601362 -4.202201 -113.298169 85.817403 -114.038361 0.000000 0.000000 0.000000 -15.396335 7.582168 0.835627 0.826643 5.800711 16.207291 0.448467 2.663059 12.014770 3.381644 -11.288585 -33.259479 0.000000 0.000000 0.000000 22.463870 0.096917 -4.227598 -2.399315 -9.652590 27.858788 0.650903 -14.222930 -3.439934 -0.000080 -0.048469 0.133255 4.444013 -1.158528 -0.650637 0.332445 -1.597472 0.931648 -2.173472 -0.754505 1.210117 0.816762 -0.298627 -8.191964 1.497181 -0.634609 12.701243 0.291660 -0.135704 5.169928 0.000000 0.000000 0.000000 3.526215 4.305688 -24.092372 14.079459 -22.848147 2.858887 15.925650 -13.411629 -11.403330 0.000000 0.000000 0.000000 -7.125000 0.000000 0.000000 -10.003354 41.614771 -0.844697 0.000000 0.000000 0.000000 -1.023630 4.223587 19.850717 -14.500636 -23.445943 -3.024466 -18.531441 7.095937 10.119927 0.000000 0.000000 0.000000 7.125000 0.000000 0.000000 7.481480 40.529093 0.830019
